<?xml version="1.0" encoding="utf-8" ?><svg xmlns="http://www.w3.org/2000/svg" xmlns:xlink="http://www.w3.org/1999/xlink" width="1037" height="1037" viewBox="0 0 1037 1037"><path fill="white" transform="scale(1.0127 1.0127)" d="M0 0L1024 0L1024 1024L0 1024L0 0Z"/><path fill="#597859" transform="scale(1.0127 1.0127)" d="M306.48 433.785C340.031 431.376 369.186 456.615 371.607 490.166C374.027 523.717 348.796 552.88 315.246 555.311C281.681 557.743 252.502 532.498 250.081 498.933C247.66 465.367 272.913 436.196 306.48 433.785Z"/><path fill="white" transform="scale(1.0127 1.0127)" d="M311.145 469.804C317.574 478.268 323.105 485.837 329.955 494.046C332.375 491.458 334.752 488.831 337.087 486.166C345.217 494.853 353.109 503.758 360.756 512.872C355.969 525.464 346.742 535.869 334.815 542.129L334.722 532.199C338.259 532.132 341.88 532.159 345.426 532.147C342.821 528.737 339.443 524.86 336.678 521.424L343.322 521.362C340.347 518.091 338.074 514.765 335.515 511.182C337.588 511.276 339.755 511.239 341.836 511.237C337.671 506.837 335.344 503.217 332.183 498.048C329.307 502.738 326.572 506.65 323.411 511.129L329.416 511.567C327.819 513.69 323.036 519.076 322.359 521.144L323.386 521.634L327.748 521.301C327.378 523.527 321.13 530.027 319.252 532.118L329.587 532.216L329.599 544.526C299.464 554.32 273.602 541.546 260.88 512.992C268.449 504.106 276.138 495.322 283.945 486.644L287.009 489.425C284.059 493.322 281.125 497.405 278.221 501.351C280.647 502.835 281.955 503.753 284.204 505.457C291.728 493.932 302.947 481.425 311.145 469.804Z"/><path fill="#597859" transform="scale(1.0127 1.0127)" d="M309.441 480.769C311.51 483.211 312.054 483.918 314.749 485.853C311.959 490.285 309.751 493.635 306.626 497.886L301.386 495.586C304.975 490.053 307.08 486.897 309.441 480.769Z"/><path fill="white" transform="scale(1.0127 1.0127)" d="M305.263 441.68C307.941 441.289 313.509 441.413 316.222 441.687C330.365 443.069 343.353 450.097 352.246 461.181C363.007 474.59 364.925 487.897 363.043 504.356C354.511 495.529 346.389 485.352 337.23 475.968L330.482 483.033C326.164 476.659 318.48 467.568 313.514 461.317L310.829 458.313L291.311 483.349C288.957 481.035 286.139 478.689 283.622 476.507C274.985 485.897 266.783 494.9 258.662 504.73L258.58 504.159C254.295 472.5 273.231 445.845 305.263 441.68Z"/><path fill="#535253" transform="scale(1.0127 1.0127)" d="M602.489 472.193C603.408 472.115 604.331 472.082 605.253 472.094C626.974 472.291 635.616 487.922 635.394 507.62L587.995 507.613C590.33 515.119 594.153 520.581 602.297 522.303C606.379 523.166 613.184 522.128 616.425 519.356C618.063 517.956 618.961 516.064 620.979 514.647L623.124 515.291C626.319 516.322 629.397 517.099 632.644 517.938C631.702 519.836 630.571 521.633 629.268 523.303C619.586 535.849 596.794 537.848 585.401 527.732C564.254 508.957 572.883 475.219 602.489 472.193Z"/><path fill="white" transform="scale(1.0127 1.0127)" d="M601.743 483.607C610.375 482.929 618.09 486.261 620.97 495.655C621.287 496.688 620.717 497.396 620.136 498.13C618.074 498.775 610.828 498.444 608.264 498.407L588.209 498.348C590.647 489.772 592.914 486.271 601.743 483.607Z"/><path fill="#535253" transform="scale(1.0127 1.0127)" d="M488.486 472.207C488.878 472.176 489.271 472.152 489.665 472.135C515.686 471.01 517.608 488.62 516.649 508.685C516.285 516.305 516.621 525.215 516.6 532.95L503.54 532.96C503.47 530.28 503.15 527.462 502.903 524.781C492.517 536.189 473.115 538.672 463.957 524.961C457.185 510.302 466.231 500.173 480.965 498.516C488.121 497.712 495.299 497.998 502.495 498.025C501.902 476.543 482.362 483.31 470.438 491.138C468.791 488.106 467.047 484.197 465.536 481.023C473.027 474.818 479.011 472.999 488.486 472.207Z"/><path fill="white" transform="scale(1.0127 1.0127)" d="M487.603 506.692C492.325 506.54 497.687 506.671 502.458 506.677C502.644 516.384 500.627 520.117 491.136 523.041C473.979 525.84 468.644 508.26 487.603 506.692Z"/><path fill="#535253" transform="scale(1.0127 1.0127)" d="M715.265 472.207C722.728 471.726 730.863 472.996 736.47 478.331C744.476 485.951 742.982 497.531 743.075 507.548C743.153 516.009 743.101 524.487 743.114 532.947L729.965 532.938C729.659 530.255 729.583 527.221 729.448 524.5C727.766 526.393 726.255 527.915 724.163 529.386C718.09 533.589 710.561 535.122 703.328 533.628C697.192 532.348 693.727 529.729 690.416 524.698C687.569 518.146 687.184 509.76 692.746 504.538C701.685 496.145 717.432 497.906 728.887 497.979C728.56 491.22 727.392 485.405 719.309 484.003C710.815 482.53 703.809 486.443 697.151 491.263C694.974 487.541 693.767 485.075 691.983 481.129C699.477 474.911 705.728 472.948 715.265 472.207Z"/><path fill="white" transform="scale(1.0127 1.0127)" d="M712.53 506.68C717.836 506.454 723.512 506.582 728.85 506.61C728.78 510.307 728.752 511.976 728.117 515.595C725.142 519.812 723.214 520.897 718.673 522.778C712.617 524.03 703.646 523.766 702.117 516.13C701.735 514.266 702.176 512.328 703.326 510.813C705.622 507.725 709 507.158 712.53 506.68Z"/><path fill="#535253" transform="scale(1.0127 1.0127)" d="M402.123 452.961L416.997 452.933L417.09 519.616C429.919 519.394 443.231 519.55 456.099 519.525L456.11 533.025L402.045 533.02C402.349 506.419 402.157 479.574 402.123 452.961Z"/><path fill="#535253" transform="scale(1.0127 1.0127)" d="M535.988 455.522L550.208 455.491C550.381 461.193 550.264 467.493 550.267 473.243L565.089 473.195C565.32 476.978 565.259 480.77 565.245 484.561L550.166 484.541C550.366 492.52 549.96 500.881 549.97 508.89C549.986 520.992 554.255 523.494 565.024 519.158L566.586 526.749C566.728 527.173 567.012 527.977 567.091 528.395C567.235 529.159 567.288 529.615 566.742 530.18C563.833 533.192 558.314 533.801 554.313 533.93C549.465 534.087 543.675 532.983 540.1 529.439C533.947 523.337 536.02 494.437 535.996 484.61L525.579 484.581L525.631 473.104L535.978 473.141L535.988 455.522Z"/><path fill="#535253" transform="scale(1.0127 1.0127)" d="M758.99 449.021L773.102 449.033L773.128 532.996L758.927 532.998C759.263 505.196 758.989 476.864 758.99 449.021Z"/><path fill="#535253" transform="scale(1.0127 1.0127)" d="M681.872 472.197C683.057 473.497 682.607 483.041 682.596 485.453C676.429 485.404 670.264 486.066 665.627 490.7C663.813 492.52 662.52 494.792 661.881 497.28C660.778 501.524 661.324 526.499 661.336 532.979L646.982 532.995L647.057 523.07L647.001 473.091L660.139 473.026C660.57 476.519 660.73 481.364 660.955 484.966C666.599 475.31 670.896 472.895 681.872 472.197Z"/></svg>