<svg xmlns="http://www.w3.org/2000/svg" viewBox="0 0 107.05 107.71" fill="currentColor">
  <path d="M47.88504 0.25214c2.71201-0.397 8.35001-0.271 11.09799 0.00601c14.32281 1.40002 27.47559 8.51755 36.482 19.74197c10.897 13.57999 12.83999 27.05499 10.93399 43.72299c-8.64002-8.939-16.866-19.245-26.14099-28.74798l-6.83402 7.155c-4.37299-6.45499-12.15399-15.66199-17.18301-21.99201l-2.72-3.04199l-19.76499 25.354c-2.384-2.34399-5.23801-4.72-7.78699-6.92999c-8.74701 9.51001-17.05301 18.62701-25.277 28.582l-0.08301-0.578c-4.34-32.061 14.83701-59.05499 47.276-63.27301"/>
  <path d="M53.842 28.732c6.51001 8.57199 12.11099 16.237 19.04801 24.54999q3.676-3.92999 7.22299-7.98001c8.23282 8.79688 16.22574 17.81518 23.97003 27.04504c-4.84811 12.75085-14.19147 23.28888-26.27002 29.62897l-0.095-10.05597c3.582-0.06799 7.24899-0.03998 10.84-0.05298c-2.638-3.453-6.06-7.38-8.85999-10.85901l6.73001-0.06299c-3.01401-3.31201-5.315-6.67999-7.90701-10.30902c2.10001 0.09497 4.29401 0.05798 6.401 0.05603c-4.21799-4.45599-6.574-8.12201-9.775-13.35699c-2.91299 4.75-5.68301 8.711-8.884 13.24701l6.082 0.44397c-1.61801 2.15002-6.461 7.604-7.147 9.69897l1.04001 0.49597l4.41699-0.33697c-0.37399 2.25403-6.702 8.836-8.603 10.95398l10.46601 0.09997l0.01199 12.46503c-30.51801 9.91901-56.70801-3.01703-69.59201-31.93402c7.66525-8.99927 15.45196-17.89441 23.358-26.68295l3.103 2.81698c-2.987 3.94601-5.95902 8.08099-8.89999 12.077c2.457 1.50299 3.78201 2.43301 6.05999 4.15799c7.61899-11.67099 18.98001-24.33701 27.28299-36.10501"/>
</svg>
